<svg width="320" height="413" viewBox="0 0 320 413" fill="none" xmlns="http://www.w3.org/2000/svg">
<path d="M33.3001 353.115C108.9 391.77 231.462 391.77 307.062 353.115C382.662 314.46 382.662 251.802 307.062 213.147C231.462 174.492 108.891 174.447 33.3001 213.147C-42.2909 251.847 -42.2999 314.469 33.3001 353.115Z" fill="#F5F5F5"/>
<path d="M311.643 335.502C292.05 346.158 260.28 346.158 240.687 335.502C221.094 324.846 221.094 307.602 240.687 296.937C260.28 286.272 292.05 286.29 311.643 296.937C331.236 307.584 331.2 324.9 311.643 335.502Z" fill="#E6E6E6"/>
<path d="M122.616 309.753C178.873 309.753 224.478 284.964 224.478 254.385C224.478 223.806 178.873 199.017 122.616 199.017C66.3591 199.017 20.7539 223.806 20.7539 254.385C20.7539 284.964 66.3591 309.753 122.616 309.753Z" fill="#E6E6E6"/>
<path d="M285.246 227.142L275.949 221.832C275.949 221.832 271.449 197.244 274.824 176.103C279.513 146.403 299.745 136.143 307.098 139.095C314.451 142.047 316.17 150.849 302.895 168.021C295.065 178.2 284.994 199.566 285.246 227.142Z" fill="#FF81AE"/>
<g opacity="0.1">
<path opacity="0.1" d="M285.246 227.142L275.949 221.832C275.949 221.832 271.449 197.244 274.824 176.103C279.513 146.403 299.745 136.143 307.098 139.095C314.451 142.047 316.17 150.849 302.895 168.021C295.065 178.2 284.994 199.566 285.246 227.142Z" fill="black"/>
</g>
<path d="M281.88 215.343H281.97C282.143 215.316 282.299 215.223 282.404 215.084C282.51 214.945 282.558 214.77 282.537 214.596C278.694 186.777 289.881 156.294 302.445 144.009C302.557 143.886 302.62 143.726 302.62 143.559C302.62 143.392 302.557 143.232 302.445 143.109C302.318 142.987 302.148 142.92 301.972 142.92C301.796 142.92 301.627 142.987 301.5 143.109C288.702 155.619 277.299 186.597 281.205 214.821C281.239 214.973 281.325 215.109 281.448 215.204C281.571 215.3 281.724 215.349 281.88 215.343Z" fill="white"/>
<path d="M311.058 242.1C312.525 242.946 315.558 241.101 316.719 240.3C318.713 238.932 320.319 237.072 321.381 234.9C322.578 232.453 322.986 229.696 322.551 227.007C322.317 225.584 321.983 224.18 321.552 222.804C321.165 221.445 320.769 220.104 320.382 218.736C319.907 217.419 319.702 216.021 319.779 214.623C320.139 211.833 322.614 209.88 324.864 208.197C327.348 206.334 329.94 203.877 329.922 200.52C329.922 197.937 328.572 195.534 326.97 193.5C325.368 191.466 323.46 189.675 322.011 187.524C320.871 186.03 320.275 184.192 320.319 182.313C320.475 181.161 320.864 180.052 321.462 179.055C322.641 176.877 324.207 174.87 325.062 172.521C325.917 170.172 325.764 167.256 323.928 165.582C322.425 164.205 320.193 164.007 318.159 164.142C316.243 164.37 314.4 165.015 312.759 166.032C307.431 168.993 304.389 175.302 298.737 177.579C296.559 178.479 294.174 178.65 291.897 179.253C289.62 179.856 287.307 181.053 286.254 183.114C284.184 187.263 288.054 192.366 286.578 196.767C285.282 200.664 281.502 202.167 279.378 205.659C278.515 207.209 278.165 208.992 278.379 210.753C278.57 213.73 279.299 216.649 280.53 219.366C281.91 222.066 283.489 224.659 285.255 227.124C285.3 227.232 310.833 241.92 311.058 242.1Z" fill="#FF81AE"/>
<path d="M295.956 234C296.133 233.993 296.301 233.916 296.422 233.787C296.543 233.657 296.609 233.485 296.604 233.307C295.506 206.973 307.917 177.903 316.935 169.461C317.049 169.339 317.113 169.178 317.113 169.011C317.113 168.844 317.049 168.683 316.935 168.561C316.812 168.448 316.651 168.386 316.485 168.386C316.318 168.386 316.158 168.448 316.035 168.561C306.837 177.183 294.174 206.73 295.281 233.433C295.307 233.593 295.389 233.738 295.513 233.842C295.637 233.946 295.794 234.002 295.956 234Z" fill="white"/>
<path d="M299.907 202.896C299.97 202.905 300.033 202.905 300.096 202.896C308.556 200.277 319.104 199.818 319.203 199.818C319.29 199.815 319.376 199.794 319.456 199.757C319.535 199.72 319.607 199.668 319.666 199.604C319.726 199.54 319.772 199.464 319.802 199.382C319.832 199.3 319.846 199.212 319.842 199.125C319.841 199.037 319.822 198.95 319.786 198.869C319.75 198.788 319.698 198.716 319.633 198.656C319.568 198.596 319.492 198.55 319.409 198.521C319.325 198.492 319.237 198.48 319.149 198.486C319.041 198.486 308.349 198.963 299.709 201.627C299.561 201.678 299.436 201.778 299.355 201.912C299.274 202.046 299.242 202.203 299.266 202.358C299.29 202.512 299.367 202.653 299.484 202.757C299.601 202.86 299.751 202.919 299.907 202.923V202.896Z" fill="white"/>
<path d="M319.644 305.775L314.55 285.192H288.963C280.493 283.734 271.837 283.734 263.367 285.192H237.771L232.677 305.775C230.733 313.434 234.873 321.507 245.079 327.375C262.242 337.275 290.079 337.275 307.233 327.375C317.448 321.507 321.579 313.434 319.644 305.775Z" fill="#FF81AE"/>
<path opacity="0.1" d="M319.644 305.775L314.55 285.192H288.963C280.493 283.734 271.837 283.734 263.367 285.192H237.771L232.677 305.775C230.733 313.434 234.873 321.507 245.079 327.375C262.242 337.275 290.079 337.275 307.233 327.375C317.448 321.507 321.579 313.434 319.644 305.775Z" fill="black"/>
<path d="M276.165 310.752C297.583 310.752 314.946 300.727 314.946 288.36C314.946 275.993 297.583 265.968 276.165 265.968C254.747 265.968 237.384 275.993 237.384 288.36C237.384 300.727 254.747 310.752 276.165 310.752Z" fill="#FF81AE"/>
<path opacity="0.2" d="M256.059 299.97C267.165 306.378 285.165 306.378 296.271 299.97C307.377 293.562 307.377 283.158 296.271 276.75C285.165 270.342 267.165 270.333 256.059 276.75C244.953 283.167 244.953 293.553 256.059 299.97Z" fill="black"/>
<path d="M298.8 285.975C298.602 285.975 298.404 285.975 298.215 285.975C298.262 285.726 298.286 285.473 298.287 285.219C298.289 284.379 298.015 283.561 297.507 282.892C296.999 282.222 296.285 281.739 295.475 281.515C294.665 281.291 293.804 281.339 293.024 281.652C292.244 281.965 291.589 282.526 291.159 283.248C290.888 282.117 290.332 281.073 289.543 280.218C288.754 279.363 287.76 278.724 286.654 278.363C285.548 278.002 284.368 277.931 283.226 278.156C282.085 278.381 281.02 278.894 280.134 279.648C279.986 278.692 279.482 277.827 278.724 277.227C277.965 276.626 277.007 276.335 276.043 276.411C275.078 276.488 274.178 276.926 273.523 277.638C272.868 278.35 272.507 279.284 272.511 280.251C272.512 280.505 272.536 280.758 272.583 281.007C271.869 280.756 271.117 280.629 270.36 280.629C269.297 280.628 268.249 280.876 267.3 281.354C266.351 281.833 265.528 282.528 264.897 283.383C264.491 282.638 263.848 282.048 263.071 281.707C262.293 281.366 261.425 281.293 260.601 281.499C259.777 281.705 259.045 282.178 258.52 282.845C257.994 283.512 257.705 284.334 257.697 285.183C257.697 285.327 257.697 285.471 257.697 285.606C256.658 285.057 255.495 284.786 254.321 284.819C253.147 284.852 252.001 285.187 250.994 285.793C249.987 286.398 249.154 287.254 248.575 288.276C247.996 289.298 247.691 290.452 247.689 291.627C247.689 295.389 250.281 298.134 254.196 300.006C260.825 304.493 268.629 306.925 276.633 306.999C287.316 306.999 295.659 302.337 299.34 300.177C303.84 297.864 305.586 296.496 305.586 292.725C305.569 290.934 304.848 289.221 303.578 287.958C302.308 286.694 300.591 285.982 298.8 285.975Z" fill="#B16668"/>
<path d="M258.516 296.874C257.864 296.209 257.482 295.327 257.442 294.397C257.402 293.467 257.707 292.555 258.3 291.836C258.892 291.118 259.729 290.644 260.649 290.506C261.57 290.367 262.509 290.574 263.286 291.087C263.743 291.388 264.129 291.786 264.415 292.252C264.701 292.719 264.881 293.243 264.942 293.787C264.675 293.353 264.316 292.985 263.889 292.707C263.263 292.291 262.522 292.082 261.771 292.108C261.02 292.134 260.296 292.395 259.701 292.853C259.105 293.312 258.668 293.945 258.451 294.665C258.234 295.384 258.247 296.153 258.489 296.865L258.516 296.874Z" fill="#9A4A4D"/>
<path d="M275.4 297.351C275.499 296.42 275.941 295.558 276.64 294.935C277.339 294.311 278.245 293.97 279.181 293.978C280.118 293.986 281.018 294.342 281.707 294.977C282.395 295.612 282.823 296.481 282.906 297.414C282.958 297.96 282.89 298.511 282.704 299.028C282.519 299.544 282.222 300.014 281.835 300.402C282.086 299.576 282.032 298.688 281.683 297.899C281.334 297.109 280.713 296.472 279.933 296.102C279.153 295.732 278.266 295.655 277.434 295.884C276.602 296.114 275.88 296.634 275.4 297.351Z" fill="#9A4A4D"/>
<path d="M262.647 292.005C262.285 291.637 262.015 291.189 261.862 290.696C261.708 290.203 261.674 289.681 261.763 289.173C261.852 288.664 262.061 288.184 262.372 287.773C262.684 287.362 263.09 287.031 263.555 286.808C264.021 286.585 264.533 286.477 265.048 286.492C265.564 286.507 266.069 286.645 266.521 286.894C266.973 287.144 267.358 287.498 267.646 287.926C267.933 288.355 268.114 288.846 268.173 289.359C267.767 288.725 267.143 288.262 266.419 288.056C265.695 287.85 264.92 287.916 264.241 288.241C263.562 288.566 263.026 289.128 262.732 289.821C262.438 290.515 262.408 291.291 262.647 292.005Z" fill="#9A4A4D"/>
<path d="M282.357 297.747C282.067 296.994 282.068 296.159 282.36 295.407C282.653 294.655 283.216 294.039 283.938 293.68C284.661 293.32 285.492 293.244 286.268 293.465C287.045 293.687 287.71 294.19 288.135 294.876C288.388 295.273 288.55 295.721 288.609 296.188C288.668 296.654 288.623 297.129 288.477 297.576C288.423 297.143 288.272 296.728 288.036 296.361C287.69 295.817 287.183 295.396 286.586 295.155C285.988 294.914 285.33 294.866 284.704 295.018C284.078 295.17 283.515 295.513 283.094 296.001C282.673 296.489 282.416 297.096 282.357 297.738V297.747Z" fill="#9A4A4D"/>
<path d="M275.301 288.675C275.119 288.191 275.055 287.671 275.114 287.158C275.174 286.645 275.356 286.153 275.644 285.725C275.932 285.296 276.319 284.942 276.772 284.693C277.225 284.444 277.73 284.307 278.247 284.294C278.764 284.28 279.276 284.39 279.741 284.615C280.207 284.839 280.611 285.172 280.922 285.585C281.233 285.998 281.44 286.479 281.527 286.988C281.614 287.498 281.577 288.021 281.421 288.513C281.321 287.759 280.946 287.069 280.367 286.575C279.789 286.081 279.048 285.819 278.288 285.839C277.528 285.859 276.802 286.16 276.25 286.684C275.699 287.208 275.36 287.917 275.301 288.675Z" fill="#9A4A4D"/>
<path d="M280.683 286.488C280.465 285.888 280.476 285.229 280.713 284.636C280.95 284.043 281.397 283.558 281.969 283.274C282.54 282.989 283.196 282.924 283.812 283.092C284.428 283.26 284.961 283.649 285.309 284.184C285.513 284.502 285.644 284.862 285.692 285.237C285.74 285.612 285.705 285.993 285.588 286.353C285.51 285.747 285.209 285.192 284.745 284.795C284.281 284.398 283.685 284.187 283.075 284.204C282.464 284.221 281.881 284.464 281.439 284.886C280.997 285.308 280.728 285.879 280.683 286.488Z" fill="#9A4A4D"/>
<path d="M80.55 141.066C70.056 128.466 49.158 128.574 43.029 120.861C34.533 110.16 44.964 97.254 44.037 93.42C43.11 89.586 33.597 96.372 31.437 109.323C29.781 119.223 33.651 127.449 43.839 133.488C51.939 138.267 69.939 143.244 72.954 150.993L80.55 141.066Z" fill="#263238"/>
<path d="M182.142 191.367C185.436 207.153 180.342 216.567 177.525 233.613C176.832 237.789 175.428 255.213 175.887 264.69C183.456 271.062 191.079 275.679 187.74 279.297C185.499 281.736 179.082 282.267 169.317 277.398C166.275 275.886 163.863 274.122 163.08 272.457C162.027 270.225 160.452 264.114 159.84 259.2C156.816 234.783 156.726 222.435 156.726 222.435L182.142 191.367Z" fill="#37474F"/>
<path d="M183.195 278.568C182.184 276.822 180.591 275.488 178.695 274.797C178.407 274.689 178.128 274.95 178.461 275.148C179.965 276.225 181.004 277.834 181.368 279.648C181.647 280.62 181.584 281.628 181.809 282.591C182.034 283.554 183.42 283.275 183.717 282.528C183.863 282.251 183.934 281.941 183.924 281.628C183.955 280.562 183.703 279.506 183.195 278.568Z" fill="#263238"/>
<path d="M186.768 276.3C185.687 275.285 184.392 274.525 182.979 274.077C182.754 274.005 182.637 274.221 182.835 274.356C183.977 275.138 184.931 276.165 185.625 277.362C186.057 278.129 186.387 278.949 186.606 279.801C186.822 280.62 186.669 281.07 187.434 281.538C187.659 281.682 188.172 281.664 188.334 281.376C189 279.729 188.01 277.425 186.768 276.3Z" fill="#263238"/>
<path d="M103.572 145.737C106.875 161.523 101.772 170.937 98.9548 187.992C98.2618 192.159 96.1648 207.576 96.6328 217.044C102.933 223.344 112.833 229.923 109.476 233.55C107.226 235.989 100.521 236.646 90.7468 231.75C87.7138 230.238 85.2928 228.474 84.5098 226.809C83.4658 224.586 83.0158 218.781 82.4038 213.867C79.3888 189.45 78.1558 176.796 78.1558 176.796L103.572 145.737Z" fill="#37474F"/>
<path d="M103.833 231.516C102.949 230.183 101.667 229.163 100.17 228.6C99.9632 228.519 99.6212 228.663 99.8732 228.888C102.573 231.264 102.222 235.602 102.15 238.788C102.151 238.933 102.189 239.076 102.262 239.202C102.334 239.328 102.438 239.433 102.564 239.506C102.689 239.58 102.831 239.62 102.976 239.621C103.122 239.623 103.265 239.587 103.392 239.517H103.5C103.767 239.422 104.003 239.258 104.185 239.041C104.367 238.824 104.488 238.563 104.535 238.284C104.625 235.998 105.003 233.559 103.833 231.516Z" fill="#263238"/>
<path d="M108.18 230.661C107.28 229.563 105.723 228.159 104.265 227.961C104.022 227.961 104.022 228.204 104.193 228.312C104.93 228.718 105.571 229.276 106.074 229.95C106.539 230.987 106.883 232.074 107.1 233.19C107.46 234.477 106.965 236.547 108.27 237.231C108.42 237.309 108.593 237.331 108.758 237.294C108.923 237.256 109.069 237.16 109.17 237.024C110.196 235.242 109.458 232.2 108.18 230.661Z" fill="#263238"/>
<path d="M96.633 217.044C95.2349 216.981 93.8416 217.248 92.5658 217.824C91.29 218.399 90.1675 219.266 89.2891 220.356C89.2891 220.356 94.6261 218.106 99.4681 219.861L99.7381 219.942C98.6581 218.979 97.605 218.007 96.633 217.044Z" fill="#263238"/>
<path d="M193.86 110.7C196.785 107.685 199.413 107.1 203.58 108.414C208.881 110.088 217.629 116.163 219.339 119.655C221.85 124.821 209.655 146.457 202.797 141.111C195.939 135.765 193.86 110.7 193.86 110.7Z" fill="#263238"/>
<path d="M220.968 148.374C218.439 142.695 217.962 130.743 214.173 122.535C210.384 114.327 198.675 109.134 186.678 111.033C169.101 113.823 164.313 127.503 159.768 141.516C154.989 156.24 138.87 151.74 126.36 144.72C115.659 138.708 103.644 130.041 84.0601 135.216C76.8061 137.142 69.0121 143.082 62.6851 152.541C57.8701 159.741 48.6541 193.833 48.0691 207.72C47.7181 216.063 48.0691 219.348 48.0691 227.115C48.0691 232.074 48.0691 239.715 49.0861 241.983C49.8691 243.639 52.2901 245.403 55.3231 246.915C65.0881 251.793 71.8021 251.136 74.0431 248.715C77.3821 245.115 69.4351 240.255 63.0901 234C62.8561 229.293 64.9351 216 64.9351 216C66.0151 213.858 70.5151 211.617 74.0071 207.288C77.726 202.697 80.9734 197.743 83.7001 192.501C99.0001 199.953 100.269 205.938 107.865 215.1C114.885 223.569 119.268 225.396 125.325 227.952C125.325 227.952 127.431 250.452 130.455 274.824C131.058 279.747 131.508 285.543 132.552 287.775C133.335 289.44 135.981 290.862 138.915 292.554C148.95 298.35 154.341 296.064 157.194 294.354C161.514 291.78 157.545 287.982 144.675 277.983C144.207 268.506 147.087 252.711 147.789 248.535C148.86 242.118 151.524 232.146 151.524 232.146C159.138 231.93 170.838 226.44 179.982 214.263C187.506 204.318 188.082 192.213 191.232 176.463C191.493 175.149 191.754 173.763 192.132 172.413C192.132 172.413 204.732 175.455 211.932 174.879C212.463 174.825 212.985 174.771 213.507 174.672C213.991 174.615 214.467 174.51 214.929 174.357C216.927 173.934 219.285 172.089 220.761 171.135C221.944 170.38 223.021 169.473 223.965 168.435C224.245 168.171 224.509 167.892 224.757 167.598C224.804 167.571 224.843 167.531 224.87 167.484C224.897 167.436 224.911 167.383 224.91 167.328C224.964 167.328 224.964 167.328 225.018 167.274C226.155 165.886 227.094 164.348 227.808 162.702C229.707 158.328 223.488 154.062 220.968 148.374Z" fill="#455A64"/>
<path d="M153 292.275C152.1 291.015 149.958 289.485 148.293 289.809C148.104 289.809 148.293 290.07 148.401 290.097C151.02 291.132 152.622 294.417 152.217 297.117C152.037 298.251 153.774 297.441 154.017 297.027C154.926 295.704 153.801 293.4 153 292.275Z" fill="#37474F"/>
<path d="M153.315 289.035C152.829 289.035 153.153 289.548 153.468 289.593C153.783 289.638 154.197 290.178 154.368 290.376C154.965 290.899 155.483 291.506 155.907 292.176C156.628 293.559 157.23 295.002 157.707 296.487C158.103 297.459 159.885 296.487 159.705 295.587C159.201 292.653 156.6 288.954 153.315 289.035Z" fill="#37474F"/>
<path d="M64.0891 243.648C63.9361 243.594 63.7201 243.702 63.8371 243.882C64.6111 245.043 65.4391 246.087 66.1321 247.329C66.8525 248.665 67.3164 250.124 67.5001 251.631C67.5348 251.752 67.6002 251.862 67.6901 251.951C67.78 252.039 67.8913 252.103 68.0131 252.135L68.5081 252.261C68.672 252.295 68.8426 252.276 68.9948 252.207C69.1471 252.137 69.273 252.02 69.3541 251.874C70.8751 248.319 67.2301 244.656 64.0891 243.648Z" fill="#37474F"/>
<path d="M73.2513 246.006C72.2987 244.506 70.834 243.403 69.1293 242.901C68.9043 242.856 68.4543 242.982 68.7153 243.288C69.8176 244.513 70.75 245.882 71.4873 247.356C71.8653 248.148 72.2613 248.976 72.5763 249.795C72.8913 250.614 72.8733 251.55 73.7913 251.937C73.9746 252.011 74.1786 252.016 74.3655 251.952C74.5524 251.887 74.7097 251.757 74.8083 251.586C75.7263 249.831 74.2053 247.5 73.2513 246.006Z" fill="#37474F"/>
<path d="M191.385 175.869L176.985 176.49L161.532 171.702L149.877 159.606C149.877 166.356 155.052 179.802 168.3 183.906C181.548 188.01 189.9 183.906 189.9 183.906C190.323 181.521 190.8 179.064 191.286 176.49C191.295 176.292 191.34 176.076 191.385 175.869Z" fill="#37474F"/>
<path d="M211.77 149.238C207.504 150.597 207.693 155.187 204.768 158.526C201.843 161.865 188.568 168.471 182.331 164.394C174.42 159.246 165.708 160.911 168.894 170.244C172.08 179.577 187.92 177.66 192.15 172.44C192.15 172.44 204.75 175.482 211.95 174.906C212.481 174.852 213.003 174.798 213.525 174.699C214.008 174.642 214.485 174.537 214.947 174.384C216.945 173.961 219.303 172.116 220.779 171.162C221.961 170.407 223.039 169.5 223.983 168.462C224.263 168.198 224.527 167.919 224.775 167.625C224.822 167.598 224.861 167.558 224.888 167.511C224.915 167.463 224.929 167.41 224.928 167.355C224.982 167.355 224.982 167.355 225.036 167.301C226.173 165.913 227.112 164.375 227.826 162.729C229.302 159.3 225.882 155.952 223.101 151.929C220.14 148.698 219.672 146.7 211.77 149.238Z" fill="#F0F0F0"/>
<path d="M192.15 172.44C179.748 170.91 176.058 165.303 176.058 165.303C176.058 165.303 170.532 170.703 176.427 175.068C182.322 179.433 192.15 172.44 192.15 172.44Z" fill="#E0E0E0"/>
<path d="M192.15 172.44C183.924 176.796 171.765 173.529 164.691 167.436C158.913 162.45 156.312 154.566 158.157 145.125C158.157 145.125 151.326 146.223 149.742 150.984C148.527 156.078 149.661 165.483 157.257 172.629C163.989 178.929 180.657 186.561 190.719 179.505C190.719 179.505 193.815 177.147 192.15 172.44Z" fill="#FF81AE"/>
<path d="M185.688 113.769C182.988 107.361 167.445 108.657 156.726 118.755C151.443 123.723 153.171 128.907 153.468 134.118C153.9 141.696 158.4 150.3 164.7 150.75C171 151.2 174.717 140.211 175.851 134.343C177.489 126.045 182.088 115.794 185.688 113.769Z" fill="#263238"/>
<path d="M222.903 168.813C220.599 169.2 216.288 166.32 215.055 163.971C214.779 163.413 214.617 162.805 214.58 162.184C214.542 161.562 214.63 160.939 214.837 160.352C215.044 159.765 215.367 159.225 215.786 158.764C216.205 158.304 216.713 157.932 217.278 157.671C219.492 156.816 223.758 156.087 225.756 156.771C227.754 157.455 229.05 160.488 228.744 161.883C228.159 164.556 226.062 168.3 222.903 168.813Z" fill="#263238"/>
<path d="M192.663 142.947C192.663 142.395 192.827 141.856 193.133 141.397C193.44 140.938 193.876 140.581 194.385 140.369C194.895 140.158 195.456 140.103 195.997 140.211C196.539 140.318 197.036 140.584 197.426 140.974C197.816 141.364 198.082 141.861 198.189 142.403C198.297 142.944 198.242 143.505 198.031 144.015C197.82 144.524 197.462 144.96 197.003 145.267C196.544 145.573 196.005 145.737 195.453 145.737C194.713 145.737 194.003 145.443 193.48 144.92C192.957 144.397 192.663 143.687 192.663 142.947Z" fill="#FAFAFA"/>
<path d="M192.6 142.497C192.6 142.034 192.737 141.582 192.994 141.197C193.252 140.812 193.617 140.512 194.045 140.335C194.472 140.158 194.943 140.112 195.397 140.202C195.851 140.292 196.267 140.515 196.595 140.842C196.922 141.17 197.145 141.587 197.235 142.04C197.325 142.494 197.279 142.965 197.102 143.392C196.925 143.82 196.625 144.186 196.24 144.443C195.855 144.7 195.403 144.837 194.94 144.837C194.32 144.837 193.724 144.59 193.285 144.152C192.847 143.713 192.6 143.118 192.6 142.497Z" fill="#263238"/>
<path d="M166.572 209.988C161.37 212.958 154.674 219.888 151.551 232.155C159.165 231.939 170.865 226.449 180.009 214.272C182.092 211.483 183.765 208.409 184.977 205.146C177.363 212.733 171.774 207 166.572 209.988Z" fill="#F0F0F0"/>
<path d="M151.551 232.2C158.31 232.011 168.273 227.7 176.823 218.169C176.355 218.538 167.697 226.053 162.828 226.206C157.779 226.359 156.726 222.489 157.428 218.763C154.69 222.859 152.7 227.409 151.551 232.2Z" fill="#E0E0E0"/>
<path d="M63.1258 234C63.1258 234 60.2998 232.506 54.4678 237.285C54.4678 237.285 61.5418 234.801 66.0328 236.709C65.0608 235.8 64.0708 234.9 63.1258 234Z" fill="#37474F"/>
<path d="M148.212 280.746C147.126 279.882 145.956 278.964 144.702 277.992C143.358 277.835 141.998 278.097 140.807 278.741C139.617 279.385 138.654 280.381 138.051 281.592C138.051 281.592 143.316 278.748 148.212 280.746Z" fill="#37474F"/>
<path d="M190.431 139.662C191.457 140.49 193.131 137.808 197.163 137.475C200.025 137.232 199.386 133.074 195.453 133.569C191.52 134.064 188.91 138.429 190.431 139.662Z" fill="#E0E0E0"/>
<path d="M169.2 267.3C169.2 267.3 175.185 265.842 179.487 267.642C178.335 266.742 177.129 265.743 175.887 264.735C175.887 264.69 172.611 264.024 169.2 267.3Z" fill="#263238"/>
<path d="M216.9 130.761C215.415 129.744 213.984 129.861 212.265 130.815C211.945 131.076 211.724 131.438 211.64 131.842C211.555 132.246 211.612 132.667 211.801 133.034C211.99 133.401 212.299 133.692 212.677 133.858C213.054 134.024 213.478 134.056 213.876 133.947C215.586 133.443 217.152 133.524 217.584 133.884C217.74 133.348 217.759 132.781 217.64 132.235C217.52 131.69 217.266 131.183 216.9 130.761Z" fill="#E0E0E0"/>
<path d="M213.435 138.24C213.435 137.706 213.593 137.184 213.89 136.74C214.187 136.296 214.608 135.95 215.102 135.746C215.595 135.541 216.138 135.488 216.662 135.592C217.186 135.696 217.667 135.953 218.044 136.331C218.422 136.708 218.679 137.19 218.783 137.713C218.887 138.237 218.834 138.78 218.63 139.273C218.425 139.767 218.079 140.188 217.635 140.485C217.191 140.782 216.669 140.94 216.135 140.94C215.419 140.94 214.732 140.656 214.226 140.149C213.72 139.643 213.435 138.956 213.435 138.24Z" fill="#FAFAFA"/>
<path d="M213.408 137.808C213.408 137.367 213.539 136.935 213.784 136.568C214.03 136.201 214.378 135.915 214.786 135.746C215.194 135.577 215.643 135.533 216.076 135.619C216.509 135.705 216.906 135.918 217.218 136.23C217.531 136.542 217.743 136.94 217.829 137.373C217.915 137.806 217.871 138.254 217.702 138.662C217.533 139.07 217.247 139.419 216.88 139.664C216.513 139.909 216.082 140.04 215.64 140.04C215.347 140.04 215.057 139.982 214.786 139.87C214.515 139.758 214.269 139.594 214.062 139.386C213.855 139.179 213.69 138.933 213.578 138.662C213.466 138.391 213.408 138.101 213.408 137.808Z" fill="#263238"/>
</svg>
